<?xml version="1.0" standalone="no"?>
<!DOCTYPE svg PUBLIC "-//W3C//DTD SVG 20010904//EN"
 "http://www.w3.org/TR/2001/REC-SVG-20010904/DTD/svg10.dtd">
<svg version="1.0" xmlns="http://www.w3.org/2000/svg"
 width="260.000000pt" height="260.000000pt" viewBox="0 0 260.000000 260.000000"
 preserveAspectRatio="xMidYMid meet">
<metadata>
Created by potrace 1.11, written by Peter Selinger 2001-2013
</metadata>
<g transform="translate(0.000000,260.000000) scale(0.100000,-0.100000)"
fill="#000000" stroke="none">
<path d="M1114 2502 c-1 -99 -28 -189 -99 -338 -56 -117 -153 -281 -252 -429
-257 -384 -342 -651 -299 -935 42 -274 241 -531 541 -699 49 -28 90 -49 92
-47 2 2 -22 57 -53 122 -190 401 -208 604 -75 836 45 79 169 242 246 322 6 6
39 46 74 88 l63 77 23 -27 c72 -87 171 -237 220 -336 31 -62 57 -119 58 -127
2 -8 5 -18 9 -24 5 -9 20 -68 19 -80 0 -2 4 -19 10 -37 22 -79 20 -240 -6
-370 -12 -61 -71 -210 -126 -321 -32 -64 -59 -119 -59 -122 0 -3 32 11 70 30
317 160 509 417 563 756 16 98 15 266 -2 356 -7 35 -14 75 -17 90 -3 16 -20
73 -39 128 -145 436 -508 866 -951 1128 -6 3 -10 -11 -10 -41z"/>
</g>
</svg>
